<?xml version="1.0" standalone="no"?><!DOCTYPE svg PUBLIC "-//W3C//DTD SVG 1.1//EN" "http://www.w3.org/Graphics/SVG/1.1/DTD/svg11.dtd"><svg t="1751797048335" class="icon" viewBox="0 0 1024 1024" version="1.1" xmlns="http://www.w3.org/2000/svg" p-id="22231" xmlns:xlink="http://www.w3.org/1999/xlink" width="200" height="200"><path d="M1002.666667 512c0 67.413333-12.373333 130.133333-36.266667 188.16-23.893333 57.6-59.733333 110.506667-107.52 158.72-48.213333 47.786667-101.12 83.626667-158.72 107.52-58.026667 23.893333-120.746667 36.266667-188.16 36.266667-67.84 0-130.56-12.373333-188.586667-36.266667-57.6-23.893333-110.506667-59.733333-158.72-107.52C116.906667 810.666667 81.066667 757.76 57.173333 700.16 33.28 642.133333 21.333333 579.413333 21.333333 512c0-67.84 11.946667-130.56 35.84-188.586667 23.893333-58.026667 59.733333-110.506667 107.52-158.72C212.906667 116.906667 265.386667 81.066667 323.413333 57.173333 381.44 33.28 444.16 21.333333 512 21.333333c67.413333 0 130.133333 11.946667 188.16 35.84 57.6 23.893333 110.506667 59.733333 158.72 107.52 47.786667 48.213333 83.626667 101.12 107.52 158.72 23.893333 58.026667 36.266667 120.746667 36.266667 188.586667z m-85.333334 0c0-56.32-10.24-107.946667-29.866666-155.733333-19.626667-47.786667-49.493333-91.733333-89.173334-130.986667-39.253333-39.68-83.2-69.546667-130.986666-89.173333-47.786667-19.626667-99.413333-29.44-155.306667-29.44-56.32 0-107.946667 9.813333-155.733333 29.44-47.786667 19.626667-91.733333 49.493333-130.986667 89.173333-39.68 39.253333-69.546667 83.2-89.173333 130.986667-19.626667 47.786667-29.44 99.413333-29.44 155.733333 0 55.893333 9.813333 107.52 29.44 155.306667 19.626667 47.786667 49.493333 91.733333 89.173333 130.986666 39.253333 39.68 83.2 69.546667 130.986667 89.173334 47.786667 19.626667 99.413333 29.866667 155.733333 29.866666 55.893333 0 107.52-10.24 155.306667-29.866666 47.786667-19.626667 91.733333-49.493333 130.986666-89.173334 39.68-39.68 69.546667-83.2 89.173334-130.986666 19.626667-47.786667 29.866667-99.413333 29.866666-155.306667z m-539.733333-24.746667c-21.76 0-37.973333-5.546667-49.066667-16.213333-10.666667-11.093333-16.213333-27.306667-16.213333-48.64 0-21.76 5.546667-37.973333 16.213333-49.066667 11.093333-10.666667 27.306667-16.213333 49.066667-16.213333 21.333333 0 37.546667 5.546667 48.64 16.213333 10.666667 11.093333 16.213333 27.306667 16.213333 49.066667 0 21.333333-5.546667 37.546667-16.213333 48.64-11.093333 10.666667-27.306667 16.213333-48.64 16.213333z m268.373333 0c-21.333333 0-37.546667-5.546667-48.64-16.213333-10.666667-11.093333-16.213333-27.306667-16.213333-48.64 0-9.386667 1.706667-17.493333 4.693333-25.173333 3.413333-7.68 8.106667-14.506667 14.506667-20.906667 6.4-6.4 13.226667-11.093333 20.906667-14.506667 7.68-2.986667 15.786667-4.693333 24.746666-4.693333 21.76 0 37.973333 5.546667 49.066667 16.213333 10.666667 11.093333 16.213333 27.306667 16.213333 49.066667 0 21.333333-5.546667 37.546667-16.213333 48.64-11.093333 10.666667-27.306667 16.213333-49.066667 16.213333zM512 810.666667c98.56 0 180.053333-75.093333 190.72-171.093334 1.28-11.52-8.533333-20.906667-20.053333-20.906666H341.333333c-11.946667 0-21.76 9.386667-20.48 20.906666A192.64 192.64 0 0 0 512 810.666667z" fill="#000000" p-id="22232"></path></svg>