<?xml version="1.0" standalone="no"?><!DOCTYPE svg PUBLIC "-//W3C//DTD SVG 1.1//EN" "http://www.w3.org/Graphics/SVG/1.1/DTD/svg11.dtd"><svg t="1753888798104" class="icon" viewBox="0 0 1024 1024" version="1.1" xmlns="http://www.w3.org/2000/svg" p-id="8228" xmlns:xlink="http://www.w3.org/1999/xlink" width="200" height="200"><path d="M512 112c-220.57 0-400 179.45-400 400s179.45 400 400 400 400-179.45 400-400-179.45-400-400-400z m0 736c-185.28 0-336-150.72-336-336s150.73-336 336-336 336 150.73 336 336-150.73 336-336 336z" p-id="8229" fill="#2c2c2c"></path><path d="M662.11 591.46A32 32 0 0 0 618 601.57c-46.2 73.67-97.6 73.46-137.21 65-45.49-9.66-73-61.85-73.41-62.6a32 32 0 0 0-57 29c1.64 3.25 41.3 80.08 117.13 96.2a218.59 218.59 0 0 0 45.23 5c64.82 0 118.33-33 159.5-98.62a32 32 0 0 0-10.13-44.09zM384 470.67c26.51 0 48-37.49 48-64s-21.49-64-48-64-48 37.49-48 64 21.49 64 48 64zM640 342.68c-26.51 0-48 37.49-48 64s21.49 64 48 64 48-37.49 48-64-21.49-64-48-64z" p-id="8230" fill="#2c2c2c"></path></svg>