<?xml version="1.0" standalone="no"?><!DOCTYPE svg PUBLIC "-//W3C//DTD SVG 1.1//EN" "http://www.w3.org/Graphics/SVG/1.1/DTD/svg11.dtd"><svg t="1749484796919" class="icon" viewBox="0 0 1927 1024" version="1.1" xmlns="http://www.w3.org/2000/svg" p-id="4171" xmlns:xlink="http://www.w3.org/1999/xlink" width="376.3671875" height="200"><path d="M613.379826 212.961395l314.553756 286.924035c14.877543 11.902034 35.281029 14.877543 52.709008 7.226235 3.400581-0.850145 6.37609-2.550436 8.926526-4.675799L1309.223744 218.487339c11.051889-6.37609 18.278124-17.853051 18.703197-31.030303-0.425073-11.051889-5.525944-21.253632-14.027398-28.054794-18.703196-15.302615-45.907846-15.302615-64.185969 0L963.639685 416.571191l-286.07389-257.168949c-18.278124-15.727688-45.482773-16.15276-64.185969-1.275218-8.501453 6.37609-13.177252 16.577833-13.177252 27.204649-0.425073 11.051889 4.675799 21.253632 13.177252 27.629722z m700.519717 310.728103c-19.128269-15.302615-45.907846-14.45247-64.185969 1.275218l-286.073889 255.893731-286.07389-257.168949c-18.703196-15.302615-45.907846-15.302615-64.185969 0-8.501453 6.37609-13.177252 16.577833-13.177252 27.204649 0 10.626816 5.100872 20.82856 13.177252 27.204649l316.254047 286.924035c14.877543 11.902034 35.281029 14.877543 52.709008 7.226235 3.400581-0.850145 6.37609-2.550436 8.926525-4.675799l319.654629-283.948526c11.051889-6.801162 17.427978-19.128269 17.002906-32.305521 0-10.626816-5.525944-20.82856-14.027398-27.629722z" p-id="4172" fill="#ffffff"></path></svg>