<?xml version="1.0" encoding="UTF-8"?>
<svg id="_图层_1" data-name="图层_1" xmlns="http://www.w3.org/2000/svg" version="1.1" viewBox="0 0 257.5 256">
  <!-- Generator: Adobe Illustrator 29.4.0, SVG Export Plug-In . SVG Version: 2.1.0 Build 152)  -->
  <defs>
    <style>
      .st0 {
        fill: #fff;
      }
    </style>
  </defs>
  <path class="st0" d="M128,0C57.32,0,0,57.31,0,128s57.31,128,128,128,128-57.3,128-128c0-70.69-57.3-128-128-128ZM128,239.71c-61.7,0-111.71-50.01-111.71-111.71S66.31,16.29,128,16.29s111.71,50.01,111.71,111.71c0,61.7-50,111.71-111.71,111.71Z"/>
  <path class="st0" d="M100.48,181.12c1.4,0,2.8-.3,4.1-1.1l73.8-42.6c2.5-1.4,4.1-4.1,4.1-7.1s-1.5-5.6-4.1-7.1l-73.8-42.6c-2.6-1.4-5.6-1.4-8.2,0-2.5,1.4-4.1,4.1-4.1,7.1v85.2c0,2.9,1.5,5.6,4.1,7.1,1.2.8,2.7,1.1,4.1,1.1h0ZM108.68,101.82l49.4,28.5-49.4,28.5v-57Z"/>
</svg>